<svg width="46" height="48" viewBox="0 0 46 48" fill="none" xmlns="http://www.w3.org/2000/svg">
<path d="M22.3767 29.2174L20.0735 27.1156C11.8933 19.6799 6.49268 14.76 6.49268 8.75726C6.49268 3.83727 10.3366 0 15.2289 0C17.9927 0 20.6454 1.2897 22.3767 3.31183C24.1081 1.2897 26.7607 0 29.5246 0C34.4169 0 38.2608 3.83727 38.2608 8.75726C38.2608 14.76 32.8602 19.6799 24.6799 27.1156L22.3767 29.2174Z" fill="white"/>
<path d="M35.1303 41.4879L35.4781 47.9806H24.5796V38.9372C25.9709 33.256 30.1448 28.5024 31.0723 28.0386C31.8144 27.6676 32.9661 26.5119 33.739 25.9709C34.4347 25.0433 34.8984 24.3285 35.1303 23.6328C37.797 20.6375 39.4202 23.285 39.4202 23.6328C39.4202 23.9111 39.2656 24.6763 39.1883 25.0241L36.2897 28.7343L34.3187 30.0096C34.3187 30.2415 34.3883 30.7517 34.6665 30.9372C34.9448 31.1227 35.8646 30.8599 36.2897 30.7053C37.7583 28.9662 40.7651 25.3951 41.0434 25.0241C41.3216 24.6531 41.1593 24.0966 41.0434 23.8647L40.6955 23.0531L41.0434 18.9951L42.2028 11.6908C43.5013 9.83571 44.7535 10.9178 45.2173 11.6908V24.5603L44.4057 31.169C44.4057 32.1893 43.4781 33.2946 43.0144 33.7198L35.1303 41.4879Z" fill="white"/>
<path d="M10.087 41.5037L9.73915 47.9998H20.6377V38.9517C19.2464 33.2676 15.0725 28.5116 14.1449 28.0476C13.4029 27.6763 12.2512 26.5201 11.4783 25.9787C10.7826 25.0507 10.3189 24.3355 10.087 23.6395C7.4203 20.6426 5.79712 23.2915 5.79712 23.6395C5.79712 23.9179 5.95171 24.6835 6.029 25.0315L8.92755 28.7436L10.8986 30.0196C10.8986 30.2516 10.829 30.762 10.5507 30.9476C10.2725 31.1332 9.35267 30.8703 8.92755 30.7156C7.45895 28.9756 4.45219 25.4027 4.17393 25.0315C3.89567 24.6603 4.05799 24.1035 4.17393 23.8715L4.52175 23.0595L4.17393 18.9994L3.01451 11.6913C1.71596 9.83529 0.463783 10.918 1.52588e-05 11.6913V24.5675L0.811609 31.1796C0.811609 32.2004 1.73915 33.3063 2.20291 33.7316L10.087 41.5037Z" fill="white"/>
</svg>
